<?xml version="1.0" encoding="UTF-8" standalone="no"?>
<!DOCTYPE svg PUBLIC "-//W3C//DTD SVG 1.1//EN" "http://www.w3.org/Graphics/SVG/1.1/DTD/svg11.dtd">
<svg width="100%" height="100%" viewBox="0 0 653 226" version="1.1" xmlns="http://www.w3.org/2000/svg" xmlns:xlink="http://www.w3.org/1999/xlink" xml:space="preserve" xmlns:serif="http://www.serif.com/" style="fill-rule:evenodd;clip-rule:evenodd;stroke-linejoin:round;stroke-miterlimit:2;">
    <g transform="matrix(1,0,0,1,-145.044443,-468.976512)">
        <g transform="matrix(0.415118,0,0,0.415118,110.961942,314.435135)">
            <path d="M82.103,911.206L82.103,752.371C82.103,702.423 96.089,663.713 124.059,636.242C152.03,608.77 192.738,595.034 246.183,595.034L492.676,595.034C540.127,595.034 563.852,574.806 563.852,534.348C563.852,493.89 540.127,473.661 492.676,473.661L94.091,473.661L94.091,376.262L515.902,376.262C567.848,376.262 608.181,390.247 636.901,418.218C665.621,446.189 679.981,484.899 679.981,534.348C679.981,583.796 665.621,622.506 636.901,650.477C608.181,678.448 567.848,692.433 515.902,692.433L262.665,692.433C241.188,692.433 225.079,697.803 214.341,708.541C203.602,719.28 198.232,734.39 198.232,753.869L198.232,814.556L818.145,821.879L880.055,915.468L82.103,911.206Z" style="fill:rgb(1,59,103);fill-rule:nonzero;"/>
            <g transform="matrix(1,0,0,1,-166.227153,0.516129)">
                <path d="M1038.109,914.952C941.709,914.952 866.662,892.101 812.968,846.398C759.274,800.696 732.427,732.891 732.427,642.985C732.427,553.578 759.274,486.023 812.968,440.32C866.662,394.618 941.709,371.767 1038.109,371.767L1135.508,371.767C1232.407,371.767 1307.579,394.618 1361.023,440.32C1414.468,486.023 1441.19,553.578 1441.19,642.985C1441.19,732.891 1414.468,800.696 1361.023,846.398C1307.579,892.101 1232.407,914.952 1135.508,914.952L1038.109,914.952ZM854.55,642.985C854.55,697.428 867.786,738.885 894.259,767.355L1187.953,474.41C1169.972,470.914 1149.743,469.165 1127.266,469.165L1046.351,469.165C983.416,469.165 935.716,482.901 903.249,510.373C870.783,537.844 854.55,582.048 854.55,642.985ZM1046.351,817.553L1127.266,817.553C1190.201,817.553 1237.901,803.693 1270.368,775.971C1302.834,748.25 1319.067,703.921 1319.067,642.985C1319.067,588.541 1305.581,547.084 1278.609,518.614L984.165,812.309C1002.646,815.805 1023.374,817.553 1046.351,817.553Z" style="fill:rgb(1,59,103);fill-rule:nonzero;"/>
            </g>
        </g>
        <g transform="matrix(1,0,0,1,587.962269,526.666485)">
            <path d="M88.952,53.558C80.74,99.854 17.253,105.171 3.653,56.464C-3.163,32.055 21.138,-7.553 62.362,6.868C68.417,8.987 86.842,20.281 89.133,41.555C89.834,48.064 89.588,47.977 88.952,53.558ZM29.927,50.41C28.532,28.041 48.073,30.265 52.349,31.877C72.354,39.42 59.798,71.799 38.725,62.054C33.356,59.571 30.336,51.504 29.927,50.41Z" style="fill:rgb(9,111,188);fill-opacity:0.66;"/>
            <path d="M123.034,124.555C122.85,121.99 122.801,122.057 123.06,119.444C127.255,77.029 172.835,70.758 192.411,87.604C242.383,130.606 174.127,197.848 131.661,148.363C124.981,140.58 123.278,126.566 123.034,124.555ZM149.951,119.578C157.567,96.499 177.734,107.057 181.014,114.747C191.815,140.076 149.024,150.233 149.951,119.578Z" style="fill:rgb(9,111,188);fill-opacity:0.66;"/>
            <path d="M160.5,2.082C161.984,2.051 169.063,0.686 166.103,5.272C163.882,8.714 84.908,147.405 84.297,148.387C77.888,158.71 74.924,167.489 71.503,167.561C69.266,167.607 44.32,168.13 43.533,167.448C42.13,166.232 43.742,165.888 71.882,115.721C101.659,62.634 130.71,12.665 135.896,3.744C137.13,1.622 139.052,2.082 160.5,2.082Z" style="fill:rgb(9,111,188);fill-opacity:0.66;"/>
        </g>
    </g>
</svg>
